<svg width="209" height="209" viewBox="0 0 209 209" fill="none" xmlns="http://www.w3.org/2000/svg">
<rect x="20.3668" y="20.3662" width="169" height="169" rx="84.5" stroke="#3D3D3D"/>
<path d="M111.48 205.253L110.427 205.351L109.889 199.598C109.833 199.004 109.924 198.461 110.16 197.968C110.394 197.478 110.751 197.075 111.233 196.759C111.714 196.446 112.296 196.257 112.977 196.193C113.659 196.13 114.265 196.207 114.797 196.425C115.328 196.647 115.755 196.976 116.079 197.414C116.4 197.855 116.588 198.372 116.644 198.966L117.182 204.719L116.13 204.818L115.599 199.149C115.56 198.725 115.431 198.356 115.213 198.043C114.996 197.732 114.706 197.498 114.343 197.341C113.978 197.187 113.553 197.132 113.069 197.178C112.586 197.223 112.179 197.355 111.848 197.574C111.518 197.797 111.276 198.08 111.123 198.426C110.967 198.774 110.909 199.16 110.949 199.585L111.48 205.253ZM106.663 200.707L106.643 196.77L107.649 196.765L107.681 203.31L106.71 203.315L106.705 202.292L106.619 202.292C106.468 202.626 106.236 202.894 105.925 203.097C105.613 203.303 105.21 203.408 104.716 203.41C104.273 203.412 103.885 203.323 103.551 203.143C103.218 202.966 102.958 202.694 102.772 202.329C102.585 201.966 102.491 201.506 102.488 200.949L102.467 196.79L103.473 196.785L103.493 200.876C103.496 201.39 103.631 201.79 103.9 202.076C104.168 202.364 104.535 202.507 105.001 202.505C105.322 202.504 105.609 202.432 105.861 202.292C106.11 202.152 106.307 201.947 106.45 201.68C106.594 201.412 106.665 201.088 106.663 200.707ZM93.8554 202.828L93.9301 201.979L97.3091 202.276L97.2344 203.125L93.8554 202.828ZM96.1121 204.6L95.1103 204.512L95.6571 198.298C95.682 198.015 95.6596 197.799 95.59 197.65C95.5173 197.504 95.4179 197.401 95.292 197.341C95.163 197.285 95.0249 197.25 94.8777 197.237C94.7674 197.227 94.6763 197.225 94.6046 197.23C94.5326 197.238 94.475 197.244 94.4318 197.249L94.3072 196.331C94.3773 196.311 94.4744 196.294 94.5983 196.279C94.7225 196.262 94.878 196.261 95.0648 196.278C95.3478 196.303 95.6197 196.388 95.8807 196.533C96.1388 196.679 96.3461 196.884 96.5025 197.149C96.656 197.413 96.7161 197.735 96.6828 198.114L96.1121 204.6ZM90.3917 195.588C90.9759 195.677 91.4673 195.894 91.8659 196.239C92.2618 196.584 92.5452 197.025 92.7163 197.563C92.8846 198.1 92.9179 198.703 92.8162 199.371C92.7136 200.045 92.5019 200.615 92.1811 201.081C91.8574 201.546 91.4554 201.884 90.9749 202.095C90.4917 202.306 89.958 202.367 89.3738 202.278C88.7896 202.19 88.2996 201.973 87.9037 201.628C87.5051 201.283 87.2219 200.84 87.054 200.3C86.8833 199.76 86.8493 199.153 86.9519 198.479C87.0536 197.81 87.266 197.245 87.5893 196.783C87.9097 196.32 88.3115 195.983 88.7948 195.772C89.2752 195.561 89.8075 195.5 90.3917 195.588ZM90.2558 196.482C89.812 196.414 89.4296 196.472 89.1085 196.656C88.7874 196.84 88.5299 197.107 88.3359 197.457C88.1418 197.806 88.0119 198.198 87.9461 198.63C87.8803 199.063 87.8878 199.476 87.9686 199.871C88.0493 200.265 88.2154 200.599 88.4669 200.873C88.7183 201.147 89.0659 201.318 89.5097 201.385C89.9534 201.453 90.3361 201.393 90.6576 201.207C90.9791 201.02 91.2371 200.75 91.4315 200.398C91.626 200.045 91.7561 199.652 91.8219 199.22C91.8878 198.787 91.8801 198.375 91.7988 197.984C91.7176 197.592 91.5511 197.261 91.2992 196.989C91.0474 196.718 90.6996 196.549 90.2558 196.482ZM83.1548 203.33L84.9485 194.789L85.9328 194.996L84.139 203.537L83.1548 203.33ZM80.8022 193.604C81.3296 193.743 81.7602 193.999 82.0938 194.372C82.4267 194.747 82.6427 195.21 82.7419 195.759C82.8404 196.31 82.8013 196.921 82.6247 197.592C82.4496 198.257 82.1836 198.803 81.8267 199.232C81.4699 199.661 81.0531 199.955 80.5763 200.115C80.0995 200.274 79.5946 200.284 79.0617 200.143C78.6496 200.035 78.3422 199.88 78.1394 199.68C77.9331 199.482 77.7895 199.279 77.7088 199.073C77.6245 198.869 77.5612 198.702 77.5187 198.573L77.4363 198.552L76.6155 201.667L75.643 201.411L77.8664 192.971L78.8059 193.219L78.5497 194.191L78.6651 194.222C78.7669 194.125 78.9069 194.006 79.0851 193.865C79.2626 193.727 79.4917 193.621 79.7723 193.548C80.0523 193.478 80.3956 193.497 80.8022 193.604ZM80.4401 194.443C80.05 194.34 79.6936 194.355 79.3708 194.487C79.0473 194.622 78.7677 194.853 78.5321 195.178C78.2957 195.507 78.1146 195.91 77.9887 196.388C77.8642 196.861 77.8239 197.292 77.8679 197.683C77.9112 198.076 78.0414 198.407 78.2585 198.676C78.4749 198.947 78.7809 199.135 79.1765 199.239C79.5885 199.348 79.9598 199.332 80.2902 199.193C80.6172 199.056 80.8968 198.826 81.129 198.502C81.3577 198.18 81.5306 197.797 81.6479 197.352C81.7666 196.902 81.8057 196.474 81.7654 196.07C81.7215 195.667 81.5922 195.322 81.3774 195.033C81.1591 194.747 80.8467 194.55 80.4401 194.443ZM65.8002 195.529C65.6871 195.948 65.755 196.337 66.0039 196.693C66.2527 197.05 66.6224 197.327 67.1129 197.523C67.4716 197.667 67.8086 197.735 68.1241 197.726C68.4369 197.717 68.7092 197.641 68.9408 197.498C69.1699 197.354 69.3361 197.153 69.4396 196.894C69.5263 196.678 69.5493 196.472 69.5088 196.275C69.4646 196.08 69.3813 195.898 69.259 195.73C69.1356 195.564 68.9975 195.412 68.8445 195.274C68.6906 195.139 68.5463 195.022 68.4119 194.922L67.6778 194.371C67.489 194.231 67.2849 194.061 67.0655 193.859C66.8435 193.657 66.6477 193.424 66.4779 193.16C66.3045 192.898 66.1922 192.605 66.1412 192.282C66.0902 191.959 66.1407 191.607 66.2929 191.227C66.4682 190.789 66.7414 190.44 67.1124 190.178C67.4807 189.916 67.9255 189.768 68.4467 189.735C68.9653 189.701 69.5358 189.809 70.1582 190.058C70.7384 190.29 71.2033 190.585 71.5529 190.942C71.8998 191.299 72.1275 191.693 72.236 192.125C72.3418 192.556 72.3219 192.999 72.176 193.455L71.1633 193.049C71.2595 192.733 71.2581 192.439 71.159 192.166C71.0563 191.896 70.886 191.656 70.6481 191.448C70.4066 191.241 70.125 191.073 69.8033 190.944C69.4288 190.794 69.0682 190.72 68.7216 190.722C68.374 190.726 68.0693 190.803 67.8076 190.952C67.5448 191.104 67.3542 191.328 67.2359 191.623C67.1282 191.892 67.1157 192.141 67.1984 192.37C67.2811 192.599 67.424 192.816 67.627 193.019C67.83 193.223 68.058 193.422 68.3112 193.615L69.194 194.299C69.754 194.734 70.151 195.195 70.385 195.68C70.619 196.166 70.6267 196.681 70.4081 197.227C70.2264 197.681 69.9453 198.027 69.5648 198.267C69.1807 198.508 68.7427 198.638 68.2511 198.659C67.7557 198.68 67.2496 198.588 66.7327 198.381C66.2105 198.172 65.7838 197.892 65.4527 197.542C65.1205 197.195 64.9002 196.813 64.7917 196.396C64.6806 195.978 64.7003 195.562 64.8508 195.148L65.8002 195.529ZM60.3281 193.063L60.6948 192.294L63.7567 193.754L63.3899 194.523L60.3281 193.063ZM61.8227 195.513L60.9149 195.08L63.5997 189.449C63.7219 189.192 63.7765 188.982 63.7632 188.819C63.7462 188.656 63.6891 188.525 63.5919 188.425C63.491 188.327 63.3738 188.246 63.2405 188.182C63.1404 188.135 63.0559 188.101 62.9869 188.08C62.9167 188.063 62.8605 188.048 62.8184 188.038L63.0226 187.134C63.0951 187.14 63.192 187.158 63.3133 187.188C63.4358 187.215 63.5816 187.269 63.7509 187.349C64.0073 187.472 64.2324 187.647 64.426 187.874C64.617 188.101 64.7395 188.365 64.7935 188.668C64.8449 188.969 64.7887 189.292 64.6248 189.635L61.8227 195.513ZM59.6054 185.084C60.123 185.369 60.5092 185.742 60.7642 186.204C61.0166 186.664 61.1303 187.176 61.1053 187.74C61.0777 188.302 60.9008 188.879 60.5745 189.471C60.2455 190.068 59.8501 190.53 59.3882 190.856C58.9238 191.181 58.4297 191.36 57.9058 191.392C57.3795 191.423 56.8575 191.296 56.3399 191.011C55.8224 190.726 55.4374 190.353 55.1849 189.893C54.93 189.431 54.817 188.918 54.8459 188.354C54.8723 187.788 55.05 187.206 55.3791 186.609C55.7053 186.017 56.1 185.559 56.563 185.237C57.0234 184.913 57.5169 184.736 58.0433 184.705C58.5671 184.672 59.0879 184.799 59.6054 185.084ZM59.1695 185.875C58.7763 185.659 58.3973 185.581 58.0325 185.643C57.6677 185.705 57.3338 185.866 57.0309 186.127C56.728 186.389 56.471 186.711 56.2599 187.094C56.0488 187.477 55.913 187.868 55.8526 188.266C55.7922 188.664 55.8327 189.035 55.9741 189.379C56.1155 189.723 56.3827 190.003 56.7759 190.22C57.169 190.436 57.5487 190.512 57.9149 190.448C58.2811 190.384 58.6164 190.22 58.9206 189.956C59.2249 189.693 59.4826 189.369 59.6937 188.986C59.9048 188.603 60.0399 188.213 60.0989 187.818C60.1579 187.422 60.1161 187.054 59.9733 186.712C59.8306 186.371 59.5626 186.092 59.1695 185.875ZM55.6304 182.98L52.0978 188.49L51.2798 187.966L51.8134 187.133L51.756 187.097C51.4808 187.305 51.1572 187.41 50.7852 187.411C50.4133 187.412 50.0623 187.307 49.7323 187.095C49.6701 187.055 49.5931 187.004 49.5014 186.942C49.4096 186.88 49.3414 186.831 49.2966 186.795L49.8486 185.935C49.8727 185.96 49.9316 186.013 50.0252 186.093C50.1149 186.174 50.216 186.251 50.3284 186.323C50.5962 186.495 50.8714 186.592 51.154 186.614C51.4326 186.638 51.6957 186.591 51.9434 186.473C52.1872 186.356 52.3888 186.173 52.5483 185.924L54.7837 182.437L55.6304 182.98ZM51.8964 180.533L48.1031 185.868L47.2835 185.285L51.0768 179.951L51.8964 180.533ZM47.0542 186.46C47.2139 186.574 47.313 186.726 47.3513 186.917C47.3874 187.107 47.3511 187.278 47.2425 187.431C47.1338 187.584 46.984 187.674 46.7932 187.702C46.6001 187.729 46.4236 187.685 46.2639 187.572C46.1041 187.458 46.0062 187.306 45.9702 187.117C45.9318 186.926 45.9669 186.754 46.0756 186.601C46.1842 186.448 46.3351 186.359 46.5283 186.332C46.7191 186.304 46.8944 186.347 47.0542 186.46ZM47.5178 177.058C48.0155 177.445 48.3592 177.889 48.5491 178.39C48.735 178.891 48.771 179.416 48.6571 179.964C48.5393 180.513 48.2744 181.053 47.8625 181.582C47.4506 182.111 46.9912 182.502 46.4843 182.755C45.9734 183.009 45.4561 183.114 44.9324 183.07C44.4047 183.026 43.9077 182.823 43.4414 182.46C43.1724 182.251 42.9417 181.999 42.7492 181.705C42.5568 181.411 42.4315 181.08 42.3733 180.71C42.3135 180.343 42.3479 179.945 42.4767 179.516C42.6055 179.087 42.8575 178.632 43.2327 178.15L43.4945 177.814L47.4756 180.913L46.9416 181.599L43.7674 179.128C43.5405 179.419 43.3964 179.725 43.3349 180.044C43.2712 180.362 43.2944 180.67 43.4044 180.968C43.5121 181.264 43.7095 181.524 43.9964 181.747C44.3125 181.993 44.647 182.128 45.0001 182.151C45.3492 182.174 45.6822 182.109 45.9992 181.956C46.3162 181.803 46.5855 181.585 46.8072 181.3L47.1632 180.843C47.4669 180.453 47.6571 180.07 47.7337 179.694C47.8064 179.318 47.7767 178.966 47.6445 178.636C47.5106 178.308 47.2834 178.02 46.9629 177.77C46.7544 177.608 46.5434 177.491 46.3299 177.418C46.1124 177.346 45.8958 177.321 45.68 177.344C45.4625 177.369 45.2503 177.445 45.0434 177.572L44.4443 176.76C44.7274 176.563 45.0411 176.44 45.3852 176.391C45.7276 176.344 46.0816 176.375 46.4473 176.483C46.8113 176.594 47.1681 176.785 47.5178 177.058ZM37.2884 175.17L38.1301 175.586C38.0713 175.736 38.0354 175.901 38.0223 176.08C38.0053 176.26 38.0349 176.448 38.1111 176.643C38.1873 176.838 38.334 177.034 38.5511 177.23C38.8483 177.499 39.1578 177.654 39.4798 177.696C39.7977 177.739 40.0509 177.655 40.2395 177.447C40.4071 177.261 40.4721 177.054 40.4344 176.824C40.3966 176.595 40.2668 176.315 40.0449 175.984L39.4841 175.156C39.1452 174.658 38.9674 174.204 38.9508 173.795C38.9322 173.387 39.0762 173.014 39.3829 172.675C39.6344 172.396 39.9393 172.22 40.2975 172.146C40.6537 172.069 41.0312 172.097 41.4301 172.227C41.8289 172.358 42.2169 172.594 42.5942 172.935C43.0895 173.383 43.4023 173.861 43.5325 174.369C43.6628 174.877 43.5845 175.377 43.2975 175.868L42.4294 175.405C42.5981 175.083 42.6478 174.772 42.5783 174.471C42.5067 174.169 42.3181 173.88 42.0125 173.604C41.6647 173.29 41.322 173.114 40.9842 173.077C40.6424 173.039 40.3772 173.125 40.1886 173.334C40.0362 173.503 39.9676 173.697 39.9828 173.918C39.996 174.14 40.0992 174.39 40.2922 174.668L40.9301 175.589C41.2796 176.097 41.4586 176.555 41.4673 176.965C41.4719 177.375 41.3228 177.748 41.0199 178.083C40.7723 178.357 40.4763 178.53 40.1319 178.602C39.7855 178.671 39.4241 178.645 39.0479 178.524C38.6695 178.4 38.3096 178.184 37.9682 177.875C37.4876 177.441 37.2056 176.995 37.1221 176.536C37.0365 176.076 37.092 175.62 37.2884 175.17ZM35.4907 165.785C35.8856 166.224 36.1276 166.704 36.2165 167.224C36.3035 167.741 36.2425 168.262 36.0335 168.786C35.8226 169.308 35.4656 169.795 34.9627 170.247C34.4556 170.702 33.9303 171.008 33.3868 171.164C32.8415 171.318 32.3161 171.324 31.8107 171.183C31.3034 171.039 30.8522 170.747 30.4573 170.308C30.0623 169.868 29.8213 169.39 29.7343 168.872C29.6454 168.352 29.7075 167.831 29.9205 167.307C30.1317 166.781 30.4908 166.29 30.9979 165.835C31.5009 165.383 32.0239 165.081 32.5672 164.929C33.1085 164.774 33.6328 164.769 34.1401 164.913C34.6455 165.055 35.0957 165.345 35.4907 165.785ZM34.8187 166.389C34.5187 166.055 34.1863 165.857 33.8214 165.795C33.4566 165.734 33.0882 165.776 32.7162 165.923C32.3442 166.07 31.9955 166.29 31.6701 166.583C31.3447 166.875 31.088 167.199 30.9 167.555C30.712 167.911 30.6282 168.275 30.6486 168.646C30.669 169.018 30.8292 169.37 31.1293 169.704C31.4293 170.038 31.7628 170.235 32.1297 170.295C32.4967 170.354 32.8672 170.31 33.2413 170.161C33.6154 170.012 33.9651 169.791 34.2905 169.499C34.6159 169.206 34.8716 168.883 35.0575 168.529C35.2434 168.175 35.325 167.813 35.3025 167.443C35.28 167.074 35.1187 166.723 34.8187 166.389ZM25.4812 164.244L26.1513 163.717L28.3318 166.491L27.6617 167.018L25.4812 164.244ZM32.1546 162.142L26.2984 166.745C26.0036 166.977 25.7035 167.101 25.3981 167.117C25.0927 167.133 24.8039 167.069 24.5318 166.925C24.2598 166.781 24.0272 166.587 23.834 166.341C23.6813 166.147 23.5723 165.976 23.507 165.828C23.4417 165.681 23.3988 165.566 23.3781 165.485L24.2407 165.176C24.2589 165.226 24.286 165.295 24.3221 165.383C24.3564 165.468 24.4183 165.567 24.5079 165.681C24.7133 165.942 24.9275 166.079 25.1506 166.092C25.3719 166.102 25.6099 166.007 25.8645 165.807L31.5331 161.351L32.1546 162.142ZM26.3713 153.891L27.8024 156.173L20.4094 160.81L18.9148 158.428C18.4649 157.711 18.228 157.004 18.2039 156.308C18.1775 155.614 18.3545 154.958 18.735 154.34C19.1132 153.724 19.6849 153.176 20.4502 152.696C21.2203 152.213 21.9693 151.934 22.6974 151.86C23.423 151.787 24.0996 151.919 24.7271 152.256C25.3522 152.595 25.9003 153.14 26.3713 153.891ZM26.4467 155.775L25.6133 154.447C25.2299 153.836 24.7942 153.403 24.3062 153.149C23.8183 152.895 23.2946 152.806 22.7352 152.882C22.1758 152.958 21.5953 153.185 20.9936 153.562C20.3968 153.937 19.9441 154.356 19.6356 154.821C19.3247 155.288 19.1753 155.788 19.1873 156.32C19.1969 156.854 19.3829 157.41 19.7452 157.987L20.6419 159.417L26.4467 155.775ZM23.3425 148.957L17.5953 152.089L17.114 151.206L22.8613 148.074L23.3425 148.957ZM16.3927 152.162C16.4865 152.335 16.5088 152.515 16.4595 152.704C16.4089 152.89 16.3013 153.028 16.1367 153.117C15.972 153.207 15.7978 153.223 15.6139 153.164C15.4287 153.104 15.2892 152.987 15.1954 152.815C15.1016 152.643 15.08 152.464 15.1306 152.278C15.1799 152.089 15.2868 151.95 15.4514 151.86C15.6161 151.77 15.791 151.756 15.9762 151.817C16.1601 151.875 16.2989 151.99 16.3927 152.162ZM21.3279 144.633C21.5073 145.006 21.5996 145.38 21.6049 145.752C21.6077 146.126 21.5176 146.467 21.3347 146.775C21.1491 147.085 20.8643 147.331 20.4801 147.516C20.1419 147.678 19.8359 147.743 19.562 147.71C19.2855 147.679 19.0336 147.581 18.8063 147.416C18.579 147.251 18.3714 147.048 18.1835 146.807C17.9918 146.565 17.8123 146.316 17.645 146.059C17.4268 145.722 17.2528 145.448 17.1229 145.236C16.9891 145.023 16.8682 144.88 16.7602 144.805C16.6509 144.729 16.5232 144.725 16.3772 144.795L16.3465 144.81C15.9674 144.992 15.7226 145.237 15.6121 145.545C15.5003 145.851 15.5446 146.212 15.7448 146.63C15.9525 147.063 16.2101 147.357 16.5176 147.512C16.825 147.667 17.1103 147.743 17.3734 147.739L17.4789 148.747C17.0465 148.766 16.669 148.695 16.3464 148.534C16.0199 148.373 15.7439 148.158 15.5183 147.892C15.2889 147.624 15.1029 147.341 14.9604 147.044C14.8695 146.854 14.7881 146.626 14.7163 146.358C14.6406 146.088 14.6167 145.805 14.6444 145.508C14.6709 145.209 14.7869 144.915 14.9924 144.628C15.1979 144.34 15.535 144.084 16.0038 143.859L19.8921 141.994L20.327 142.901L19.5279 143.284L19.55 143.33C19.7075 143.33 19.8937 143.367 20.1085 143.44C20.3233 143.514 20.5391 143.645 20.7558 143.834C20.9726 144.023 21.1632 144.289 21.3279 144.633ZM20.447 144.885C20.275 144.526 20.0595 144.258 19.8007 144.08C19.5407 143.899 19.2691 143.799 18.986 143.78C18.7018 143.759 18.4367 143.807 18.1908 143.925L17.3608 144.323C17.4254 144.34 17.5082 144.404 17.6093 144.516C17.7066 144.627 17.8098 144.76 17.9191 144.916C18.0246 145.07 18.1257 145.222 18.2223 145.371C18.3152 145.518 18.3914 145.638 18.4509 145.729C18.5947 145.95 18.7503 146.146 18.9177 146.318C19.0814 146.488 19.2612 146.604 19.4572 146.664C19.6493 146.723 19.8607 146.697 20.0912 146.587C20.4063 146.436 20.5886 146.205 20.6382 145.894C20.6839 145.583 20.6202 145.246 20.447 144.885ZM19.1785 140.307L13.0378 142.573L12.7015 141.662L13.661 141.307L13.6315 141.228C13.2564 141.221 12.9257 141.108 12.6392 140.89C12.3501 140.672 12.1317 140.364 11.9842 139.964C11.8347 139.559 11.8023 139.188 11.8868 138.851C11.9678 138.512 12.1441 138.206 12.4159 137.933L12.3923 137.869C12.0171 137.829 11.6782 137.686 11.3755 137.44C11.0703 137.196 10.8365 136.854 10.6742 136.414C10.4716 135.865 10.4778 135.352 10.6928 134.876C10.9051 134.401 11.3724 134.03 12.0947 133.764L16.2045 132.247L16.5526 133.191L12.4428 134.707C11.9897 134.875 11.7116 135.118 11.6085 135.438C11.5054 135.757 11.5159 136.085 11.6398 136.421C11.7991 136.853 12.0531 137.139 12.4018 137.28C12.7479 137.422 13.1195 137.419 13.5166 137.273L17.5145 135.797L17.8685 136.757L13.6628 138.309C13.3136 138.438 13.0743 138.655 12.9446 138.96C12.8123 139.266 12.8121 139.598 12.9439 139.955C13.0344 140.2 13.1842 140.405 13.3935 140.57C13.6018 140.733 13.846 140.836 14.1261 140.881C14.4025 140.925 14.6913 140.891 14.9924 140.78L18.8304 139.364L19.1785 140.307ZM15.1174 127.894C15.2665 128.466 15.2613 129.003 15.1017 129.505C14.9414 130.005 14.6481 130.44 14.2219 130.809C13.795 131.176 13.2544 131.445 12.6001 131.615C11.9404 131.787 11.3333 131.818 10.7788 131.707C10.2237 131.594 9.75412 131.358 9.37013 131C8.98542 130.64 8.71851 130.173 8.56939 129.602C8.42027 129.03 8.42586 128.494 8.58616 127.994C8.74575 127.492 9.04039 127.057 9.47008 126.689C9.89905 126.319 10.4434 126.048 11.1032 125.876C11.7574 125.705 12.3607 125.677 12.9131 125.791C13.4648 125.903 13.933 126.139 14.3177 126.499C14.7017 126.857 14.9683 127.322 15.1174 127.894ZM14.2432 128.122C14.13 127.687 13.9254 127.359 13.6296 127.137C13.3338 126.914 12.9869 126.783 12.589 126.743C12.191 126.703 11.7803 126.738 11.357 126.849C10.9336 126.959 10.5567 127.129 10.2262 127.359C9.89575 127.589 9.65436 127.874 9.50207 128.213C9.34979 128.552 9.33028 128.939 9.44356 129.374C9.55683 129.808 9.76274 130.136 10.0613 130.357C10.3598 130.579 10.7095 130.71 11.1102 130.749C11.5109 130.788 11.923 130.753 12.3463 130.642C12.7697 130.532 13.1452 130.362 13.4729 130.133C13.8007 129.903 14.0393 129.619 14.1888 129.281C14.3384 128.943 14.3565 128.556 14.2432 128.122ZM9.86253 123.28L13.7357 122.571L13.9167 123.56L7.47817 124.738L7.3033 123.783L8.30933 123.598L8.29399 123.515C7.93942 123.424 7.63481 123.242 7.38015 122.971C7.1227 122.701 6.94949 122.322 6.86052 121.836C6.78076 121.4 6.80039 121.002 6.91942 120.643C7.03565 120.283 7.25739 119.98 7.58465 119.732C7.90911 119.485 8.34521 119.312 8.89293 119.212L12.9841 118.463L13.1651 119.452L9.141 120.189C8.6352 120.281 8.2652 120.484 8.03102 120.799C7.79404 121.114 7.71748 121.5 7.80133 121.959C7.85911 122.274 7.97922 122.544 8.16166 122.768C8.34359 122.989 8.57893 123.146 8.86769 123.241C9.15645 123.335 9.48807 123.348 9.86253 123.28ZM12.6117 114.175C12.667 114.718 12.5786 115.211 12.3468 115.654C12.1121 116.098 11.7551 116.463 11.2759 116.748C10.7939 117.034 10.2081 117.213 9.51846 117.283C8.83449 117.352 8.22903 117.296 7.70207 117.112C7.17511 116.929 6.75327 116.642 6.43654 116.252C6.11981 115.861 5.93354 115.392 5.87773 114.843C5.83458 114.42 5.87115 114.077 5.98743 113.817C6.10061 113.554 6.2396 113.349 6.40443 113.201C6.56614 113.05 6.69978 112.932 6.80535 112.847L6.79672 112.762L3.59169 113.089L3.48985 112.088L12.1723 111.204L12.2706 112.171L11.2701 112.273L11.2822 112.392C11.4084 112.453 11.5688 112.542 11.7635 112.66C11.9554 112.777 12.1348 112.954 12.3017 113.192C12.4658 113.429 12.5691 113.757 12.6117 114.175ZM11.6991 114.131C11.6583 113.73 11.5192 113.401 11.2819 113.145C11.0417 112.89 10.7277 112.709 10.34 112.603C9.94942 112.497 9.50825 112.469 9.01647 112.519C8.53035 112.569 8.11218 112.683 7.76197 112.861C7.40893 113.04 7.14477 113.278 6.96946 113.576C6.79134 113.874 6.72299 114.226 6.76441 114.633C6.80756 115.057 6.95234 115.399 7.19873 115.66C7.44201 115.918 7.75597 116.099 8.1406 116.202C8.52211 116.303 8.9418 116.331 9.39966 116.284C9.86318 116.237 10.2771 116.123 10.6414 115.943C11.0027 115.761 11.2807 115.519 11.4755 115.216C11.6672 114.911 11.7417 114.549 11.6991 114.131ZM6.8209 104.749L7.1036 105.645C6.95481 105.706 6.81109 105.794 6.67243 105.909C6.53085 106.021 6.41603 106.173 6.32795 106.363C6.23987 106.553 6.20023 106.795 6.20902 107.087C6.22105 107.487 6.32336 107.818 6.51596 108.08C6.70563 108.338 6.94103 108.463 7.22215 108.455C7.47204 108.447 7.66666 108.351 7.80602 108.165C7.94538 107.978 8.05754 107.691 8.14248 107.302L8.35183 106.323C8.47623 105.734 8.68036 105.292 8.96423 104.996C9.24525 104.701 9.61435 104.546 10.0715 104.532C10.4464 104.521 10.7847 104.619 11.0865 104.826C11.3882 105.03 11.63 105.321 11.8119 105.699C11.9938 106.078 12.0924 106.521 12.1077 107.029C12.1277 107.696 11.9995 108.253 11.723 108.699C11.4465 109.145 11.0317 109.435 10.4786 109.568L10.2114 108.621C10.5608 108.519 10.8197 108.34 10.9882 108.082C11.1566 107.821 11.2346 107.485 11.2222 107.073C11.2081 106.604 11.0976 106.235 10.8905 105.966C10.6805 105.694 10.435 105.562 10.1539 105.57C9.92671 105.577 9.73884 105.662 9.59028 105.826C9.43888 105.99 9.32979 106.237 9.26302 106.569L9.04022 107.667C8.91624 108.27 8.70939 108.717 8.41968 109.007C8.12704 109.295 7.75497 109.445 7.30347 109.459C6.93432 109.47 6.60465 109.376 6.31446 109.177C6.02418 108.976 5.79269 108.697 5.62 108.341C5.44722 107.982 5.35392 107.573 5.34009 107.113C5.32064 106.466 5.44735 105.953 5.72022 105.575C5.993 105.195 6.3599 104.92 6.8209 104.749ZM1.96261 86.1244L16.1055 88.5671L15.9604 89.407L1.81755 86.9642L1.96261 86.1244ZM11.6283 63.9723L12.0289 62.9944L17.3762 65.1845C17.9282 65.4106 18.3679 65.7426 18.6951 66.1805C19.0207 66.6148 19.212 67.1183 19.269 67.6912C19.3234 68.263 19.2208 68.8657 18.9613 69.4992C18.7018 70.1328 18.3522 70.6343 17.9123 71.0037C17.4698 71.372 16.9797 71.5979 16.442 71.6816C15.9027 71.7616 15.357 71.6885 14.8049 71.4624L9.45761 69.2723L9.85816 68.2943L15.1266 70.4521C15.5209 70.6136 15.9074 70.6706 16.2861 70.6231C16.6621 70.5745 17.0039 70.4259 17.3114 70.1773C17.6173 69.925 17.8623 69.5741 18.0465 69.1245C18.2306 68.675 18.3021 68.253 18.261 67.8586C18.2173 67.4631 18.078 67.1174 17.843 66.8216C17.6065 66.5222 17.2911 66.2916 16.8967 66.1301L11.6283 63.9723ZM17.8798 61.819L21.3826 63.6175L20.9232 64.5121L15.1005 61.5224L15.5443 60.6581L16.4541 61.1252L16.493 61.0494C16.2674 60.7611 16.1362 60.4319 16.0996 60.0618C16.0603 59.6903 16.1536 59.2847 16.3794 58.845C16.5818 58.4508 16.8398 58.1473 17.1534 57.9347C17.4644 57.7207 17.8251 57.6153 18.2355 57.6185C18.6433 57.6203 19.0949 57.7484 19.5903 58.0027L23.2901 59.9025L22.8308 60.7971L19.1915 58.9285C18.7341 58.6936 18.3168 58.6294 17.9396 58.7359C17.5598 58.8411 17.2635 59.101 17.0507 59.5154C16.9041 59.801 16.8349 60.0881 16.8433 60.3766C16.8529 60.6625 16.9434 60.931 17.1148 61.1818C17.2862 61.4327 17.5412 61.6451 17.8798 61.819ZM21.9528 49.4662L22.6692 49.9278L20.832 52.7792L20.1155 52.3176L21.9528 49.4662ZM19.3328 50.6372L19.8775 49.7918L25.1218 53.1708C25.3606 53.3247 25.562 53.4054 25.726 53.4131C25.8892 53.4169 26.0265 53.3769 26.1379 53.2932C26.2484 53.2056 26.3437 53.0997 26.4237 52.9755C26.4837 52.8824 26.5282 52.8029 26.5571 52.737C26.5836 52.6696 26.6048 52.6157 26.6208 52.5753L27.491 52.8926C27.4755 52.9638 27.4455 53.0576 27.4008 53.1742C27.3585 53.2922 27.2866 53.4301 27.185 53.5877C27.0312 53.8265 26.829 54.0275 26.5786 54.1906C26.3298 54.3513 26.0518 54.4392 25.7447 54.4542C25.4391 54.4669 25.1263 54.3701 24.8063 54.1639L19.3328 50.6372ZM29.9671 49.7698C29.6171 50.2459 29.1968 50.5804 28.706 50.7732C28.2169 50.9638 27.6946 51.01 27.1391 50.912C26.5852 50.8116 26.0359 50.5612 25.4911 50.1608C24.9417 49.757 24.5354 49.3049 24.272 48.8046C24.0103 48.302 23.8974 47.7889 23.9333 47.2652C23.9708 46.7392 24.1645 46.2382 24.5145 45.7621C24.8645 45.2859 25.284 44.9526 25.7731 44.7621C26.2639 44.5693 26.7873 44.5239 27.3434 44.6259C27.9012 44.7256 28.4548 44.9774 29.0042 45.3812C29.549 45.7816 29.9511 46.2323 30.2105 46.7332C30.4716 47.2319 30.5834 47.7442 30.5458 48.2701C30.51 48.7938 30.3171 49.2937 29.9671 49.7698ZM29.2392 49.2348C29.505 48.8731 29.631 48.5074 29.6172 48.1376C29.6034 47.7678 29.4867 47.4158 29.267 47.0816C29.0472 46.7473 28.7611 46.4506 28.4086 46.1915C28.0561 45.9324 27.6864 45.7471 27.2995 45.6354C26.9126 45.5238 26.5395 45.5158 26.1802 45.6113C25.8208 45.7068 25.5083 45.9354 25.2424 46.2971C24.9766 46.6588 24.8517 47.0253 24.8678 47.3968C24.8839 47.7683 25.0029 48.1219 25.2249 48.4579C25.447 48.7938 25.7342 49.0914 26.0867 49.3505C26.4393 49.6096 26.8078 49.7941 27.1924 49.904C27.577 50.0139 27.9478 50.0203 28.3049 49.9231C28.6619 49.8259 28.9733 49.5965 29.2392 49.2348ZM26.4443 39.7866L33.1965 45.3159L32.5594 46.094L25.8072 40.5647L26.4443 39.7866ZM36.1758 42.1981C35.8067 42.5997 35.3794 42.861 34.8939 42.982C34.4063 43.1011 33.8966 43.0764 33.3647 42.9078C32.8308 42.7373 32.3086 42.4175 31.7982 41.9485C31.292 41.4833 30.9325 40.9928 30.7197 40.477C30.507 39.9612 30.4414 39.4553 30.523 38.9592C30.6046 38.4632 30.8319 38.0123 31.2048 37.6065C31.4932 37.2927 31.7733 37.0929 32.0451 37.007C32.3168 36.9172 32.5627 36.8847 32.7829 36.9096C33.0029 36.9304 33.1798 36.9521 33.3134 36.9746L33.3711 36.9119L30.9991 34.7319L31.6796 33.9915L38.1054 39.8969L37.4479 40.6123L36.7075 39.9318L36.6267 40.0196C36.6646 40.1548 36.7043 40.334 36.7459 40.5575C36.7854 40.779 36.7719 41.0309 36.7054 41.3132C36.6368 41.5935 36.4603 41.8885 36.1758 42.1981ZM35.6029 41.4864C35.8759 41.1893 36.0292 40.8672 36.0628 40.52C36.0943 40.1708 36.021 39.816 35.8429 39.4556C35.6628 39.0932 35.3907 38.7448 35.0267 38.4103C34.667 38.0797 34.3041 37.8426 33.9381 37.6992C33.5701 37.5539 33.2166 37.5145 32.8776 37.5811C32.5365 37.6458 32.2276 37.8287 31.9507 38.1299C31.6624 38.4437 31.5026 38.7792 31.4714 39.1364C31.4401 39.4895 31.5134 39.8443 31.6913 40.2007C31.869 40.5531 32.1273 40.8851 32.4662 41.1965C32.8092 41.5117 33.1689 41.7459 33.5453 41.8989C33.9216 42.0479 34.2875 42.0948 34.643 42.0396C34.9984 41.9803 35.3184 41.7959 35.6029 41.4864ZM41.3989 28.0038C41.0787 27.7096 40.703 27.5905 40.2716 27.6465C39.8403 27.7024 39.4243 27.9026 39.0235 28.247C38.7304 28.4988 38.5148 28.7665 38.3764 29.0502C38.2403 29.332 38.1821 29.6086 38.2018 29.8801C38.2237 30.1497 38.3254 30.39 38.5068 30.6012C38.6587 30.7779 38.8312 30.8937 39.0245 30.9486C39.218 30.9995 39.4177 31.0096 39.6235 30.9789C39.8275 30.9459 40.0259 30.8935 40.2187 30.8214C40.4096 30.7473 40.5804 30.6736 40.731 30.6003L41.5588 30.2037C41.77 30.1008 42.0155 29.9985 42.2952 29.8968C42.577 29.7932 42.8741 29.7271 43.1865 29.6983C43.4993 29.6656 43.8108 29.7013 44.1213 29.8054C44.4317 29.9094 44.7202 30.1166 44.9868 30.4269C45.2941 30.7846 45.4781 31.1883 45.5388 31.6381C45.6016 32.0861 45.5273 32.5489 45.3158 33.0264C45.1066 33.5022 44.7477 33.9585 44.2392 34.3954C43.7651 34.8028 43.2889 35.079 42.8106 35.2241C42.3343 35.3673 41.8796 35.3873 41.4462 35.284C41.015 35.1788 40.6309 34.9563 40.294 34.6166L41.1214 33.9056C41.3577 34.137 41.6195 34.2717 41.9067 34.3095C42.1943 34.3434 42.4854 34.303 42.7802 34.1883C43.0752 34.0696 43.3542 33.8973 43.6171 33.6714C43.923 33.4085 44.1552 33.1229 44.3135 32.8146C44.47 32.5041 44.5425 32.1983 44.531 31.8973C44.5177 31.5941 44.4074 31.3218 44.2 31.0805C44.0111 30.8607 43.7961 30.7346 43.5548 30.7023C43.3134 30.6699 43.0556 30.6967 42.7811 30.7827C42.5067 30.8687 42.2253 30.9794 41.9371 31.1147L40.9226 31.5818C40.2777 31.8775 39.686 32.0171 39.1473 32.0005C38.6087 31.9839 38.1477 31.7525 37.7645 31.3065C37.446 30.9359 37.2685 30.5266 37.2319 30.0786C37.1956 29.6266 37.2819 29.1779 37.4909 28.7323C37.7002 28.2828 38.016 27.8766 38.4384 27.5137C38.865 27.1471 39.31 26.8978 39.7732 26.7656C40.2347 26.6313 40.6753 26.6123 41.0951 26.7085C41.517 26.8029 41.8769 27.0125 42.1747 27.3372L41.3989 28.0038ZM46.1185 24.2871L46.6311 24.968L43.921 27.0079L43.4084 26.327L46.1185 24.2871ZM43.2552 24.4796L44.0587 23.8747L47.8106 28.8591C47.9814 29.0861 48.1425 29.2316 48.2937 29.2955C48.4455 29.3555 48.5881 29.3655 48.7216 29.3255C48.8556 29.2815 48.9816 29.2151 49.0997 29.1262C49.1882 29.0596 49.2574 29.0004 49.3073 28.9486C49.3555 28.8945 49.3941 28.8513 49.423 28.8188L50.1297 29.4176C50.0906 29.479 50.03 29.5567 49.9477 29.6506C49.8672 29.7468 49.7521 29.8512 49.6023 29.964C49.3753 30.1348 49.1161 30.2535 48.8247 30.3199C48.5357 30.3846 48.2444 30.3709 47.9511 30.2788C47.66 30.185 47.4 29.986 47.1711 29.6818L43.2552 24.4796ZM53.5321 27.3422C53.0393 27.6682 52.5292 27.8369 52.0021 27.8484C51.4773 27.8583 50.9711 27.7213 50.4837 27.4374C49.9985 27.152 49.5695 26.7273 49.1965 26.1634C48.8203 25.5947 48.5951 25.0301 48.5207 24.4696C48.4487 23.9076 48.5199 23.387 48.7344 22.908C48.9512 22.4273 49.3061 22.024 49.799 21.698C50.2918 21.372 50.8006 21.2041 51.3254 21.1942C51.8526 21.1827 52.3595 21.3209 52.8462 21.6087C53.3353 21.8949 53.7679 22.3223 54.144 22.891C54.517 23.4549 54.7387 24.0168 54.8092 24.5765C54.882 25.1346 54.81 25.6539 54.5931 26.1346C54.3786 26.6137 54.025 27.0162 53.5321 27.3422ZM53.0337 26.5887C53.4081 26.341 53.6527 26.0413 53.7674 25.6896C53.8822 25.3378 53.8941 24.9671 53.8034 24.5775C53.7126 24.1879 53.5465 23.8107 53.3052 23.4458C53.0638 23.0809 52.7809 22.7793 52.4563 22.5409C52.1318 22.3026 51.7844 22.1662 51.4142 22.1317C51.044 22.0973 50.6717 22.2039 50.2973 22.4515C49.923 22.6991 49.6792 23 49.566 23.3542C49.4528 23.7083 49.4424 24.0814 49.5347 24.4733C49.6271 24.8653 49.7939 25.2437 50.0353 25.6086C50.2766 25.9735 50.5588 26.2739 50.8818 26.5099C51.2048 26.7459 51.5506 26.8799 51.9192 26.912C52.2878 26.9441 52.6593 26.8363 53.0337 26.5887ZM57.2392 24.7962L53.979 19.1204L54.8215 18.6365L55.3139 19.4938L55.373 19.4598C55.3152 19.1195 55.3715 18.7841 55.542 18.4536C55.7125 18.123 55.9678 17.8601 56.3077 17.6648C56.3718 17.628 56.4525 17.5833 56.55 17.5306C56.6475 17.4778 56.7223 17.4398 56.7744 17.4164L57.2838 18.3033C57.25 18.3128 57.1759 18.3407 57.0615 18.3867C56.9481 18.4289 56.8335 18.4833 56.7177 18.5498C56.4418 18.7083 56.2288 18.9077 56.0785 19.148C55.9293 19.3844 55.8498 19.6397 55.8402 19.9138C55.8317 20.1841 55.901 20.4474 56.0481 20.7036L58.1113 24.2952L57.2392 24.7962ZM61.1275 22.6045L58.093 16.8049L58.9841 16.3386L62.0185 22.1382L61.1275 22.6045ZM58.0404 15.6012C57.8667 15.6921 57.686 15.7113 57.4982 15.6588C57.313 15.605 57.1769 15.4951 57.09 15.329C57.0031 15.1628 56.9903 14.9883 57.0518 14.8055C57.1157 14.6213 57.2346 14.4838 57.4082 14.3929C57.5819 14.3021 57.7614 14.2835 57.9466 14.3373C58.1344 14.3898 58.2717 14.499 58.3587 14.6652C58.4456 14.8313 58.4571 15.0065 58.3931 15.1906C58.3317 15.3735 58.2141 15.5103 58.0404 15.6012ZM66.224 20.311C65.6505 20.5733 65.0978 20.673 64.5661 20.6101C64.0357 20.5434 63.5536 20.3328 63.1197 19.9783C62.6872 19.62 62.3315 19.1361 62.0526 18.5264C61.7738 17.9166 61.6391 17.3285 61.6486 16.7618C61.6595 16.1914 61.8055 15.6841 62.0866 15.2401C62.3691 14.7922 62.779 14.4454 63.3164 14.1996C63.6264 14.0578 63.9562 13.9695 64.3057 13.9346C64.6553 13.8997 65.0072 13.9417 65.3616 14.0608C65.7148 14.1773 66.0518 14.3918 66.3728 14.7042C66.6937 15.0166 66.9812 15.4506 67.2353 16.006L67.4125 16.3936L62.8242 18.4921L62.4626 17.7016L66.1209 16.0284C65.9673 15.6925 65.763 15.4236 65.5082 15.2215C65.2559 15.0182 64.9722 14.8965 64.657 14.8563C64.3445 14.815 64.0228 14.8699 63.6921 15.0212C63.3279 15.1878 63.054 15.4224 62.8706 15.7249C62.6887 16.0237 62.5922 16.349 62.5813 16.7007C62.5703 17.0525 62.6399 17.3924 62.79 17.7205L63.031 18.2476C63.2366 18.6971 63.4884 19.0427 63.7864 19.2844C64.0858 19.5224 64.4122 19.6589 64.7657 19.6941C65.1179 19.7266 65.4788 19.6584 65.8482 19.4895C66.0885 19.3796 66.2902 19.2467 66.4532 19.0909C66.6177 18.9314 66.7396 18.7506 66.8191 18.5487C66.8974 18.3442 66.928 18.1209 66.911 17.8788L67.908 17.7227C67.952 18.0649 67.9162 18.3999 67.8006 18.7277C67.6838 19.0529 67.4929 19.3527 67.2279 19.627C66.9617 19.8987 66.627 20.1267 66.224 20.311ZM72.6106 12.1037L71.8539 12.6595C71.748 12.5384 71.6183 12.4307 71.4647 12.3364C71.3129 12.2385 71.1327 12.1784 70.9243 12.1563C70.7158 12.1341 70.4746 12.1742 70.2005 12.2767C69.8253 12.4169 69.5449 12.6203 69.3594 12.8868C69.1756 13.1496 69.1329 13.4127 69.2314 13.6761C69.3189 13.9103 69.4732 14.0634 69.6942 14.1355C69.9153 14.2076 70.2236 14.2212 70.6194 14.1764L71.613 14.0598C72.2109 13.9879 72.6955 14.0388 73.0667 14.2125C73.4369 14.3834 73.7021 14.6831 73.8623 15.1116C73.9936 15.4628 74.0098 15.8147 73.911 16.167C73.8149 16.5184 73.617 16.841 73.3174 17.1349C73.0179 17.4289 72.6299 17.6649 72.1536 17.8429C71.5282 18.0767 70.9599 18.1344 70.4486 18.0161C69.9374 17.8979 69.5297 17.5983 69.2257 17.1176L70.0362 16.5598C70.2447 16.858 70.4982 17.0453 70.7967 17.1217C71.0979 17.1972 71.4414 17.1628 71.8273 17.0186C72.2664 16.8545 72.5801 16.6311 72.7686 16.3483C72.9588 16.0619 73.0047 15.787 72.9062 15.5235C72.8266 15.3106 72.6855 15.1602 72.4827 15.0722C72.279 14.9815 72.0094 14.958 71.6738 15.0015L70.5625 15.1439C69.9512 15.2207 69.4617 15.1687 69.0938 14.9877C68.7276 14.8031 68.4654 14.4993 68.3072 14.0761C68.1779 13.7302 68.1607 13.3879 68.2555 13.0492C68.3529 12.7094 68.5423 12.4006 68.8236 12.1226C69.1075 11.8436 69.465 11.6235 69.8961 11.4624C70.5028 11.2356 71.0289 11.1906 71.4743 11.3274C71.9224 11.4633 72.3012 11.722 72.6106 12.1037ZM81.781 14.863C81.2082 15.0079 80.6711 14.9987 80.1697 14.8355C79.6711 14.6715 79.2386 14.375 78.8722 13.9461C78.5086 13.5165 78.2438 12.9739 78.078 12.3184C77.9108 11.6574 77.8846 11.0501 77.9995 10.4965C78.1172 9.94223 78.3564 9.47441 78.717 9.09306C79.0805 8.71102 79.5486 8.44754 80.1215 8.30262C80.6943 8.1577 81.2301 8.16723 81.7287 8.33121C82.2301 8.49449 82.6629 8.79231 83.0273 9.22469C83.3943 9.65638 83.6615 10.2027 83.8287 10.8637C83.9945 11.5192 84.0182 12.1227 83.8999 12.6743C83.7843 13.2251 83.5448 13.6916 83.1813 14.0736C82.8207 14.455 82.3539 14.7181 81.781 14.863ZM81.5595 13.9872C81.9946 13.8771 82.3245 13.675 82.549 13.3808C82.7734 13.0867 82.9072 12.7408 82.9502 12.3431C82.9932 11.9454 82.961 11.5345 82.8537 11.1103C82.7464 10.6862 82.579 10.3081 82.3514 9.97589C82.1237 9.64373 81.8409 9.40026 81.5028 9.24548C81.1648 9.09071 80.7782 9.06836 80.343 9.17844C79.9079 9.28852 79.5784 9.49201 79.3546 9.78892C79.1308 10.0858 78.9978 10.4345 78.9555 10.8349C78.9132 11.2354 78.9457 11.6477 79.053 12.0718C79.1603 12.4959 79.3274 12.8727 79.5543 13.2021C79.7812 13.5315 80.0634 13.7723 80.4007 13.9243C80.7381 14.0763 81.1243 14.0973 81.5595 13.9872ZM87.8081 6.72315L87.9618 7.56143L84.4914 8.19811L84.3376 7.35983L87.8081 6.72315ZM86.5581 13.6071L85.214 6.28055C85.1464 5.91171 85.1766 5.58844 85.3047 5.31076C85.4329 5.03309 85.624 4.8074 85.878 4.6337C86.1321 4.46 86.4128 4.34496 86.7202 4.28857C86.9633 4.24397 87.1653 4.22713 87.3262 4.23806C87.487 4.24899 87.6083 4.26429 87.6898 4.28398L87.5617 5.19132C87.5083 5.18378 87.4346 5.17564 87.3406 5.1669C87.2494 5.15764 87.1325 5.16608 86.99 5.19223C86.663 5.2522 86.4421 5.37795 86.327 5.56947C86.2147 5.76048 86.1878 6.01525 86.2463 6.3338L87.5473 13.4257L86.5581 13.6071ZM96.5485 12.3006L93.8636 12.5121L93.1781 3.8118L95.9819 3.59089C96.8259 3.5244 97.5618 3.64167 98.1897 3.94272C98.8173 4.24093 99.3167 4.70171 99.6878 5.32505C100.059 5.94556 100.28 6.70613 100.351 7.60675C100.422 8.51303 100.322 9.306 100.051 9.98566C99.7792 10.6625 99.3486 11.2008 98.7588 11.6006C98.1689 11.9976 97.4321 12.231 96.5485 12.3006ZM94.8435 11.4945L96.4068 11.3713C97.1262 11.3146 97.7114 11.1289 98.1625 10.8141C98.6136 10.4993 98.9351 10.0764 99.1269 9.5455C99.3188 9.01458 99.3868 8.39511 99.331 7.68708C99.2757 6.98471 99.1134 6.38909 98.844 5.90021C98.5744 5.4085 98.201 5.04467 97.7236 4.80871C97.2459 4.56992 96.6673 4.4773 95.9876 4.53085L94.3053 4.6634L94.8435 11.4945ZM102.325 11.9019L102.211 5.35741L103.216 5.33985L103.331 11.8843L102.325 11.9019ZM102.703 4.25774C102.507 4.26116 102.337 4.19736 102.193 4.06634C102.051 3.93527 101.979 3.776 101.975 3.58853C101.972 3.40105 102.039 3.23935 102.176 3.10342C102.315 2.96744 102.483 2.89773 102.679 2.89431C102.875 2.89089 103.044 2.95471 103.186 3.08578C103.33 3.2168 103.404 3.37605 103.407 3.56352C103.41 3.75099 103.342 3.91272 103.202 4.0487C103.066 4.18464 102.899 4.25432 102.703 4.25774ZM107.091 12.1316C106.676 12.1155 106.303 12.0229 105.971 11.8537C105.64 11.6817 105.38 11.4428 105.193 11.137C105.006 10.8284 104.921 10.4612 104.937 10.0354C104.952 9.66065 105.037 9.35976 105.194 9.13269C105.351 8.90278 105.555 8.72589 105.807 8.60202C106.059 8.47815 106.336 8.38934 106.636 8.33558C106.94 8.27909 107.244 8.23685 107.549 8.20886C107.949 8.17313 108.273 8.14727 108.52 8.13128C108.771 8.11256 108.955 8.07274 109.071 8.01185C109.19 7.95106 109.252 7.83976 109.259 7.67794L109.26 7.64388C109.276 7.22374 109.174 6.89283 108.953 6.65116C108.735 6.40959 108.395 6.27986 107.932 6.26195C107.452 6.24339 107.072 6.33388 106.791 6.5334C106.511 6.73293 106.31 6.94978 106.19 7.18396L105.25 6.8064C105.435 6.41556 105.674 6.11492 105.967 5.90448C106.262 5.69131 106.581 5.54725 106.922 5.47232C107.266 5.39466 107.603 5.3622 107.932 5.37494C108.142 5.38306 108.382 5.41795 108.653 5.47959C108.926 5.5385 109.188 5.64954 109.438 5.81272C109.69 5.97601 109.895 6.21566 110.054 6.53168C110.212 6.8477 110.281 7.26546 110.261 7.78495L110.094 12.0942L109.089 12.0554L109.124 11.1697L109.073 11.1677C108.999 11.307 108.879 11.4545 108.714 11.6101C108.549 11.7658 108.332 11.8953 108.064 11.9986C107.795 12.102 107.471 12.1463 107.091 12.1316ZM107.279 11.2347C107.676 11.2501 108.014 11.185 108.293 11.0394C108.574 10.8939 108.789 10.7004 108.938 10.4588C109.089 10.2173 109.17 9.96033 109.181 9.68781L109.217 8.76804C109.172 8.81749 109.077 8.86071 108.93 8.89769C108.787 8.93194 108.621 8.96105 108.432 8.98503C108.246 9.00628 108.065 9.02486 107.888 9.04076C107.714 9.05393 107.573 9.06553 107.465 9.07555C107.202 9.09951 106.956 9.14542 106.726 9.21328C106.499 9.27841 106.313 9.38352 106.168 9.52859C106.026 9.67094 105.95 9.86985 105.94 10.1253C105.927 10.4745 106.045 10.7435 106.297 10.9324C106.551 11.1185 106.879 11.2193 107.279 11.2347ZM111.92 12.246L112.748 5.75318L113.712 5.87613L113.583 6.89064L113.667 6.90142C113.847 6.57206 114.099 6.33079 114.425 6.17763C114.752 6.02165 115.126 5.97062 115.549 6.02455C115.977 6.0792 116.321 6.2219 116.581 6.45265C116.844 6.68095 117.034 6.97866 117.15 7.34577L117.218 7.3544C117.427 7.04026 117.71 6.80577 118.068 6.65093C118.426 6.49327 118.838 6.4441 119.303 6.50341C119.883 6.57747 120.335 6.81981 120.658 7.23044C120.981 7.63825 121.094 8.224 120.996 8.9877L120.442 13.3332L119.444 13.2059L119.999 8.86043C120.06 8.38136 119.972 8.02225 119.736 7.7831C119.501 7.54394 119.205 7.40172 118.85 7.35642C118.394 7.29818 118.022 7.39115 117.736 7.63532C117.451 7.87668 117.281 8.2073 117.227 8.62719L116.688 12.8543L115.674 12.7249L116.241 8.27796C116.288 7.9088 116.206 7.59621 115.995 7.34021C115.785 7.08138 115.491 6.92789 115.113 6.87971C114.854 6.84664 114.603 6.88476 114.36 6.99409C114.12 7.10377 113.915 7.27239 113.745 7.49995C113.579 7.72505 113.476 7.99682 113.435 8.31526L112.918 12.3733L111.92 12.246ZM124.808 14.3665C124.231 14.2369 123.756 13.986 123.383 13.6138C123.012 13.2422 122.76 12.7823 122.627 12.2341C122.497 11.6865 122.506 11.0829 122.654 10.4232C122.804 9.75802 123.055 9.20444 123.408 8.7625C123.763 8.32119 124.188 8.01193 124.682 7.83473C125.179 7.65814 125.716 7.63465 126.292 7.76425C126.869 7.89384 127.342 8.14444 127.713 8.51604C128.086 8.88826 128.338 9.34955 128.468 9.8999C128.6 10.4509 128.591 11.059 128.442 11.7242C128.294 12.3839 128.042 12.933 127.687 13.3715C127.335 13.8107 126.911 14.1185 126.414 14.2951C125.92 14.4723 125.384 14.4961 124.808 14.3665ZM125.006 13.4851C125.444 13.5836 125.83 13.5523 126.163 13.3914C126.496 13.2304 126.772 12.9822 126.99 12.6469C127.208 12.3116 127.365 11.9305 127.461 11.5036C127.557 11.0768 127.578 10.6638 127.525 10.2646C127.472 9.86542 127.33 9.52041 127.098 9.22958C126.867 8.93874 126.532 8.7441 126.094 8.64566C125.656 8.54722 125.27 8.57986 124.936 8.74359C124.602 8.90732 124.326 9.15825 124.108 9.49636C123.889 9.83447 123.732 10.217 123.636 10.6438C123.54 11.0706 123.518 11.4823 123.572 11.8787C123.626 12.2751 123.769 12.6173 124.001 12.9054C124.233 13.1934 124.568 13.3867 125.006 13.4851ZM131.333 11.8264L130.168 15.5878L129.208 15.2903L131.143 9.03768L132.071 9.32502L131.769 10.302L131.85 10.3272C132.095 10.0551 132.397 9.86885 132.755 9.76859C133.114 9.66562 133.53 9.68723 134.002 9.83342C134.425 9.96449 134.769 10.166 135.032 10.438C135.297 10.7073 135.463 11.0443 135.531 11.449C135.6 11.8509 135.552 12.3179 135.388 12.8498L134.158 16.8228L133.197 16.5254L134.407 12.6175C134.559 12.1263 134.55 11.7042 134.379 11.3511C134.21 10.9953 133.903 10.7485 133.458 10.6107C133.151 10.5158 132.856 10.4974 132.574 10.5556C132.294 10.6146 132.045 10.7503 131.828 10.9625C131.61 11.1748 131.445 11.4627 131.333 11.8264ZM138.133 18.4753C137.626 18.2734 137.229 17.9673 136.943 17.5567C136.658 17.1435 136.5 16.6584 136.468 16.1014C136.437 15.5417 136.55 14.9399 136.806 14.2959C137.061 13.6572 137.391 13.1466 137.797 12.764C138.203 12.3815 138.653 12.14 139.145 12.0396C139.638 11.9391 140.14 11.9909 140.652 12.1948C141.048 12.3525 141.335 12.543 141.512 12.7664C141.692 12.9883 141.81 13.2065 141.866 13.4211C141.924 13.6342 141.967 13.8071 141.994 13.94L142.073 13.9716L143.265 10.9786L144.199 11.3507L140.97 19.4586L140.067 19.0991L140.44 18.1648L140.329 18.1207C140.216 18.2042 140.063 18.3052 139.869 18.4236C139.676 18.5394 139.436 18.6166 139.148 18.655C138.862 18.6907 138.523 18.6308 138.133 18.4753ZM138.594 17.6864C138.968 17.8357 139.324 17.8642 139.66 17.7719C139.998 17.677 140.303 17.4821 140.577 17.1873C140.851 16.8899 141.08 16.5116 141.263 16.0524C141.443 15.5984 141.536 15.1749 141.539 14.7819C141.544 14.3862 141.455 14.0419 141.272 13.7488C141.09 13.4531 140.809 13.2296 140.429 13.0782C140.033 12.9206 139.663 12.8908 139.318 12.9889C138.977 13.0854 138.671 13.2803 138.401 13.5734C138.135 13.865 137.917 14.2246 137.747 14.6522C137.575 15.085 137.484 15.5046 137.475 15.9108C137.47 16.3154 137.556 16.674 137.735 16.9866C137.917 17.2976 138.203 17.5308 138.594 17.6864ZM149.17 17.7065L148.245 17.5421C148.26 17.3818 148.248 17.2136 148.211 17.0374C148.177 16.86 148.096 16.6881 147.968 16.5219C147.841 16.3557 147.645 16.2087 147.382 16.0809C147.022 15.906 146.681 15.8433 146.36 15.8929C146.043 15.9411 145.823 16.0917 145.7 16.3447C145.591 16.5696 145.587 16.7869 145.687 16.9967C145.787 17.2064 145.99 17.4391 146.295 17.6947L147.065 18.3336C147.53 18.7169 147.827 19.1029 147.958 19.4914C148.089 19.8774 148.055 20.2761 147.855 20.6876C147.692 21.0249 147.448 21.2794 147.125 21.4509C146.804 21.6237 146.434 21.703 146.015 21.6889C145.595 21.6748 145.157 21.5567 144.699 21.3346C144.099 21.0431 143.665 20.6715 143.398 20.2198C143.131 19.7681 143.066 19.2663 143.205 18.7145L144.168 18.9166C144.096 19.2733 144.135 19.586 144.285 19.8548C144.439 20.1249 144.7 20.3499 145.071 20.5298C145.493 20.7345 145.871 20.8075 146.206 20.7489C146.544 20.689 146.775 20.5326 146.898 20.2796C146.997 20.0751 147.009 19.8691 146.932 19.6617C146.857 19.4516 146.689 19.2402 146.426 19.0273L145.556 18.3209C145.079 17.9314 144.779 17.541 144.656 17.1499C144.537 16.7574 144.576 16.358 144.773 15.9516C144.934 15.6193 145.17 15.3707 145.481 15.2057C145.794 15.0419 146.148 14.9659 146.544 14.9778C146.941 14.9909 147.347 15.0979 147.761 15.2989C148.344 15.5817 148.74 15.9315 148.948 16.3484C149.159 16.7664 149.233 17.2192 149.17 17.7065ZM170.886 24.4262L161.745 35.491L161.088 34.9482L170.229 23.8834L170.886 24.4262ZM187.487 46.7517L188.11 47.6057L183.441 51.0098C182.958 51.3612 182.445 51.5614 181.901 51.6103C181.36 51.6598 180.831 51.5586 180.314 51.3067C179.798 51.0531 179.339 50.6497 178.935 50.0964C178.532 49.5432 178.289 48.9824 178.205 48.4142C178.123 47.8443 178.188 47.3085 178.399 46.8067C178.613 46.3056 178.962 45.8793 179.444 45.5279L184.113 42.1238L184.736 42.9777L180.135 46.3316C179.791 46.5827 179.54 46.8819 179.382 47.2292C179.226 47.5748 179.173 47.9438 179.224 48.3359C179.278 48.7288 179.448 49.1214 179.734 49.514C180.021 49.9065 180.342 50.1888 180.7 50.3607C181.059 50.5309 181.427 50.5935 181.802 50.5486C182.181 50.5043 182.542 50.3566 182.887 50.1056L187.487 46.7517ZM186.041 53.2017L182.674 55.2421L182.153 54.382L187.751 50.9901L188.254 51.8211L187.38 52.351L187.424 52.4239C187.788 52.3829 188.137 52.4437 188.471 52.6065C188.808 52.7678 189.104 53.0598 189.361 53.4826C189.59 53.8616 189.714 54.2404 189.73 54.6188C189.749 54.9959 189.65 55.3583 189.432 55.7061C189.217 56.0525 188.871 56.37 188.395 56.6585L184.838 58.8138L184.317 57.9536L187.816 55.8337C188.255 55.5673 188.529 55.2455 188.636 54.8684C188.745 54.4899 188.679 54.1013 188.438 53.7029C188.271 53.4283 188.063 53.219 187.813 53.0749C187.565 52.9332 187.289 52.8696 186.985 52.8841C186.682 52.8985 186.367 53.0044 186.041 53.2017ZM194.414 63.157L193.645 63.5247L192.182 60.4645L192.951 60.0968L194.414 63.157ZM194.792 60.3122L195.226 61.2195L189.598 63.9109C189.342 64.0335 189.167 64.1626 189.074 64.2982C188.986 64.4351 188.948 64.573 188.96 64.7117C188.977 64.8518 189.017 64.9884 189.081 65.1217C189.129 65.2217 189.173 65.3012 189.214 65.3604C189.257 65.4183 189.292 65.4647 189.318 65.4995L188.592 66.0737C188.539 66.0232 188.475 65.9484 188.399 65.8492C188.321 65.7513 188.241 65.6177 188.16 65.4486C188.038 65.1923 187.973 64.9148 187.965 64.616C187.959 64.3199 188.03 64.0371 188.178 63.7678C188.328 63.501 188.574 63.2855 188.918 63.1213L194.792 60.3122ZM189.956 69.818C189.733 69.2706 189.668 68.7373 189.761 68.2182C189.854 67.7017 190.088 67.2325 190.463 66.8104C190.838 66.391 191.339 66.054 191.965 65.7993C192.597 65.5425 193.195 65.4329 193.759 65.4703C194.324 65.5104 194.82 65.6827 195.248 65.9873C195.676 66.2946 196.002 66.7219 196.225 67.2693C196.447 67.8167 196.512 68.3486 196.418 68.8651C196.325 69.3842 196.09 69.854 195.712 70.2745C195.335 70.6976 194.831 71.0376 194.199 71.2944C193.573 71.549 192.978 71.6558 192.416 71.6146C191.854 71.5761 191.359 71.4032 190.931 71.096C190.503 70.7914 190.178 70.3654 189.956 69.818ZM190.793 69.4777C190.962 69.8935 191.207 70.1923 191.53 70.3741C191.852 70.5558 192.213 70.6406 192.613 70.6283C193.013 70.616 193.415 70.5275 193.821 70.3627C194.226 70.198 194.577 69.9799 194.875 69.7087C195.172 69.4374 195.375 69.1237 195.481 68.7675C195.588 68.4114 195.557 68.0254 195.388 67.6096C195.219 67.1937 194.972 66.8955 194.647 66.7148C194.322 66.5341 193.958 66.4504 193.556 66.4638C193.153 66.4771 192.749 66.5662 192.344 66.731C191.939 66.8957 191.589 67.1132 191.294 67.3834C190.999 67.6536 190.799 67.9662 190.695 68.3213C190.591 68.6764 190.624 69.0619 190.793 69.4777ZM200.314 72.1083L192.047 74.9055L191.725 73.9529L199.992 71.1557L200.314 72.1083ZM193.124 79.0819C192.977 78.5566 192.98 78.0558 193.133 77.5794C193.289 77.1022 193.579 76.682 194.002 76.3188C194.428 75.9548 194.975 75.6795 195.643 75.4929C196.305 75.3078 196.911 75.2607 197.462 75.3517C198.012 75.4426 198.477 75.6535 198.856 75.9842C199.234 76.315 199.498 76.7457 199.646 77.2765C199.761 77.6869 199.783 78.0303 199.713 78.3066C199.646 78.5848 199.544 78.8109 199.407 78.985C199.273 79.161 199.161 79.2999 199.072 79.4016L199.095 79.4837L202.197 78.6164L202.468 79.5849L194.063 81.9344L193.802 80.9987L194.77 80.728L194.738 80.6131C194.603 80.5741 194.43 80.5134 194.218 80.431C194.009 80.3478 193.802 80.2036 193.597 79.9984C193.395 79.7923 193.237 79.4868 193.124 79.0819ZM194.031 78.97C194.14 79.3585 194.333 79.6586 194.61 79.8701C194.89 80.0809 195.23 80.2056 195.63 80.2441C196.033 80.2819 196.473 80.2343 196.949 80.1012C197.42 79.9697 197.812 79.7862 198.127 79.5507C198.444 79.3145 198.664 79.0348 198.786 78.7116C198.911 78.3876 198.918 78.0286 198.808 77.6347C198.693 77.2243 198.492 76.9117 198.205 76.697C197.922 76.4842 197.581 76.3596 197.185 76.323C196.792 76.2883 196.373 76.333 195.93 76.4569C195.481 76.5823 195.093 76.7646 194.765 77.0039C194.44 77.2452 194.207 77.5315 194.067 77.8628C193.93 78.196 193.918 78.5651 194.031 78.97ZM202.44 91.0083C202.859 90.8918 203.158 90.6356 203.339 90.2398C203.519 89.844 203.569 89.385 203.488 88.8628C203.429 88.481 203.316 88.1564 203.148 87.8891C202.981 87.6246 202.776 87.4291 202.535 87.3025C202.295 87.1787 202.037 87.138 201.762 87.1805C201.532 87.2161 201.342 87.3015 201.194 87.4366C201.048 87.574 200.934 87.7383 200.851 87.9292C200.772 88.1198 200.711 88.316 200.671 88.5177C200.633 88.7191 200.605 88.903 200.588 89.0695L200.487 89.9819C200.463 90.2157 200.42 90.4781 200.359 90.7693C200.298 91.0633 200.197 91.3506 200.057 91.631C199.919 91.9138 199.724 92.1595 199.472 92.3681C199.22 92.5767 198.891 92.7123 198.487 92.7748C198.021 92.8468 197.581 92.7898 197.167 92.6036C196.754 92.4203 196.4 92.1128 196.106 91.681C195.813 91.252 195.615 90.7063 195.512 90.0437C195.417 89.426 195.434 88.8758 195.563 88.3929C195.693 87.9129 195.917 87.5162 196.233 87.2028C196.55 86.8922 196.942 86.6836 197.409 86.577L197.575 87.6551C197.254 87.7335 197.001 87.8847 196.817 88.1086C196.637 88.3348 196.517 88.6034 196.459 88.9143C196.404 89.2275 196.403 89.5553 196.456 89.8979C196.517 90.2966 196.637 90.6445 196.815 90.9418C196.996 91.2387 197.218 91.4618 197.479 91.6111C197.744 91.7599 198.033 91.81 198.348 91.7614C198.634 91.7172 198.855 91.6012 199.01 91.4134C199.165 91.2255 199.278 90.9924 199.35 90.714C199.422 90.4355 199.477 90.1381 199.514 89.8219L199.653 88.7138C199.743 88.01 199.937 87.4339 200.236 86.9853C200.534 86.5367 200.974 86.2674 201.555 86.1776C202.038 86.103 202.48 86.1685 202.879 86.374C203.282 86.582 203.618 86.8923 203.886 87.3051C204.157 87.7203 204.335 88.203 204.42 88.7533C204.506 89.3092 204.482 89.8187 204.35 90.2819C204.22 90.7446 204.004 91.1288 203.7 91.4344C203.397 91.7429 203.029 91.9377 202.596 92.019L202.44 91.0083ZM203.103 96.9776L202.255 97.0533L201.953 93.6747L202.802 93.5989L203.103 96.9776ZM204.452 94.4443L204.541 95.446L198.327 96.0004C198.044 96.0256 197.836 96.0856 197.702 96.1802C197.571 96.2775 197.487 96.3934 197.45 96.5278C197.417 96.6648 197.407 96.8069 197.42 96.9541C197.43 97.0644 197.443 97.1545 197.461 97.2242C197.481 97.2937 197.498 97.3493 197.51 97.391L196.628 97.675C196.597 97.6093 196.563 97.5168 196.527 97.3974C196.488 97.2783 196.46 97.1253 196.443 96.9385C196.418 96.6556 196.454 96.3728 196.551 96.0903C196.649 95.8107 196.814 95.5706 197.047 95.3701C197.281 95.1724 197.587 95.0567 197.966 95.0229L204.452 94.4443ZM196.601 101.66C196.584 101.069 196.709 100.547 196.976 100.093C197.244 99.6413 197.627 99.2831 198.125 99.018C198.623 98.7558 199.21 98.6146 199.886 98.5943C200.567 98.5738 201.166 98.6795 201.682 98.9113C202.197 99.1459 202.603 99.4805 202.897 99.9151C203.191 100.352 203.348 100.866 203.365 101.457C203.383 102.048 203.258 102.569 202.99 103.02C202.722 103.474 202.338 103.833 201.837 104.095C201.336 104.36 200.745 104.503 200.064 104.523C199.388 104.544 198.793 104.436 198.281 104.202C197.768 103.97 197.364 103.635 197.069 103.198C196.775 102.763 196.619 102.251 196.601 101.66ZM197.504 101.633C197.518 102.082 197.644 102.447 197.883 102.73C198.121 103.013 198.43 103.218 198.809 103.346C199.188 103.474 199.596 103.531 200.034 103.518C200.471 103.505 200.876 103.423 201.25 103.273C201.623 103.122 201.922 102.899 202.146 102.602C202.37 102.306 202.476 101.933 202.462 101.484C202.449 101.036 202.321 100.67 202.08 100.387C201.838 100.105 201.527 99.8993 201.145 99.7715C200.763 99.6437 200.353 99.5864 199.916 99.5995C199.479 99.6126 199.075 99.6944 198.704 99.8448C198.333 99.9952 198.037 100.219 197.816 100.515C197.595 100.812 197.491 101.184 197.504 101.633ZM196.816 106.152L203.358 106.36L203.327 107.331L202.339 107.299L202.337 107.368C202.657 107.497 202.912 107.721 203.104 108.04C203.296 108.359 203.385 108.714 203.373 109.106C203.371 109.18 203.366 109.272 203.36 109.383C203.354 109.493 203.347 109.577 203.339 109.633L202.317 109.601C202.327 109.567 202.342 109.49 202.363 109.368C202.386 109.249 202.4 109.123 202.405 108.99C202.415 108.672 202.357 108.386 202.231 108.132C202.109 107.88 201.933 107.679 201.705 107.527C201.479 107.377 201.219 107.298 200.924 107.289L196.784 107.157L196.816 106.152ZM196.633 110.612L203.16 111.108L203.084 112.111L196.557 111.615L196.633 110.612ZM204.209 111.701C204.224 111.505 204.303 111.342 204.447 111.21C204.591 111.082 204.756 111.024 204.943 111.038C205.13 111.053 205.285 111.134 205.408 111.283C205.53 111.435 205.584 111.609 205.569 111.804C205.554 111.999 205.475 112.162 205.331 112.29C205.187 112.422 205.022 112.48 204.835 112.466C204.648 112.452 204.493 112.369 204.371 112.217C204.248 112.068 204.194 111.896 204.209 111.701ZM195.897 116.153C195.976 115.527 196.181 115.005 196.514 114.585C196.85 114.169 197.282 113.87 197.812 113.687C198.344 113.507 198.943 113.459 199.608 113.542C200.273 113.625 200.844 113.82 201.321 114.126C201.801 114.435 202.156 114.826 202.386 115.298C202.618 115.774 202.698 116.305 202.625 116.891C202.582 117.229 202.484 117.556 202.33 117.872C202.176 118.188 201.955 118.465 201.668 118.704C201.383 118.943 201.024 119.117 200.589 119.226C200.155 119.335 199.634 119.352 199.028 119.276L198.605 119.223L199.231 114.216L200.094 114.324L199.595 118.316C199.961 118.362 200.298 118.329 200.603 118.219C200.909 118.111 201.162 117.934 201.361 117.687C201.561 117.442 201.683 117.14 201.728 116.779C201.778 116.382 201.722 116.025 201.561 115.71C201.403 115.398 201.177 115.145 200.883 114.951C200.59 114.757 200.264 114.638 199.906 114.593L199.331 114.521C198.84 114.46 198.414 114.492 198.052 114.619C197.692 114.748 197.404 114.954 197.189 115.236C196.976 115.519 196.844 115.862 196.794 116.265C196.761 116.527 196.768 116.769 196.815 116.989C196.864 117.213 196.954 117.412 197.084 117.585C197.217 117.759 197.39 117.903 197.605 118.016L197.214 118.946C196.9 118.804 196.634 118.597 196.416 118.326C196.2 118.056 196.046 117.736 195.952 117.366C195.86 116.997 195.842 116.593 195.897 116.153ZM199.508 125.908L199.435 124.972C199.594 124.946 199.754 124.893 199.915 124.812C200.078 124.735 200.224 124.614 200.353 124.448C200.482 124.283 200.575 124.057 200.633 123.77C200.711 123.377 200.687 123.032 200.558 122.733C200.432 122.439 200.231 122.263 199.955 122.208C199.71 122.159 199.498 122.209 199.321 122.359C199.143 122.509 198.968 122.764 198.798 123.123L198.373 124.029C198.118 124.575 197.819 124.96 197.476 125.183C197.135 125.408 196.741 125.475 196.292 125.385C195.925 125.311 195.617 125.139 195.37 124.87C195.122 124.603 194.953 124.264 194.861 123.855C194.769 123.445 194.774 122.991 194.874 122.492C195.005 121.838 195.256 121.325 195.626 120.953C195.996 120.581 196.466 120.392 197.034 120.388L197.081 121.371C196.717 121.39 196.424 121.507 196.202 121.72C195.979 121.936 195.827 122.246 195.746 122.65C195.654 123.11 195.678 123.494 195.819 123.803C195.962 124.116 196.171 124.3 196.447 124.355C196.67 124.4 196.872 124.36 197.054 124.234C197.238 124.109 197.4 123.892 197.541 123.584L198.006 122.565C198.263 122.005 198.566 121.616 198.913 121.399C199.263 121.186 199.66 121.123 200.103 121.212C200.465 121.285 200.765 121.451 201.002 121.71C201.24 121.972 201.402 122.296 201.49 122.681C201.577 123.07 201.575 123.49 201.485 123.941C201.357 124.576 201.118 125.046 200.767 125.353C200.415 125.662 199.996 125.847 199.508 125.908ZM192.355 132.25C192.532 131.687 192.822 131.234 193.224 130.893C193.625 130.555 194.105 130.342 194.662 130.255C195.219 130.171 195.819 130.231 196.464 130.434C197.115 130.638 197.645 130.935 198.056 131.323C198.466 131.714 198.739 132.163 198.875 132.67C199.009 133.18 198.988 133.717 198.81 134.281C198.633 134.844 198.344 135.295 197.943 135.634C197.54 135.975 197.06 136.187 196.501 136.27C195.94 136.356 195.335 136.297 194.685 136.092C194.04 135.889 193.514 135.593 193.106 135.203C192.698 134.815 192.427 134.366 192.292 133.857C192.157 133.349 192.178 132.814 192.355 132.25ZM193.217 132.521C193.082 132.95 193.081 133.336 193.214 133.682C193.346 134.027 193.571 134.323 193.887 134.568C194.202 134.813 194.569 135.002 194.986 135.133C195.404 135.264 195.814 135.32 196.216 135.301C196.618 135.281 196.974 135.168 197.283 134.962C197.592 134.755 197.814 134.438 197.949 134.01C198.083 133.581 198.083 133.194 197.948 132.848C197.812 132.501 197.585 132.205 197.267 131.959C196.948 131.713 196.58 131.524 196.163 131.393C195.745 131.262 195.337 131.206 194.937 131.227C194.538 131.247 194.185 131.361 193.878 131.568C193.572 131.775 193.351 132.093 193.217 132.521ZM196.127 141.647L195.333 141.339L196.609 138.049L197.403 138.358L196.127 141.647ZM190.918 136.976L197.863 139.67C198.213 139.805 198.472 140 198.642 140.255C198.811 140.51 198.903 140.791 198.918 141.098C198.933 141.405 198.884 141.705 198.771 141.996C198.682 142.227 198.59 142.407 198.497 142.539C198.403 142.67 198.326 142.765 198.267 142.824L197.561 142.24C197.596 142.198 197.641 142.14 197.698 142.064C197.754 141.992 197.808 141.888 197.86 141.753C197.98 141.443 197.989 141.189 197.886 140.99C197.782 140.794 197.579 140.638 197.277 140.521L190.555 137.914L190.918 136.976ZM186.769 146.157L188.004 143.764L195.76 147.765L194.471 150.264C194.082 151.017 193.595 151.58 193.008 151.955C192.424 152.332 191.769 152.513 191.044 152.5C190.321 152.489 189.558 152.276 188.756 151.862C187.948 151.445 187.326 150.942 186.892 150.353C186.459 149.766 186.229 149.116 186.2 148.404C186.173 147.694 186.363 146.945 186.769 146.157ZM188.353 145.133L187.634 146.526C187.303 147.168 187.152 147.763 187.182 148.312C187.212 148.861 187.402 149.357 187.752 149.8C188.103 150.243 188.593 150.627 189.225 150.953C189.851 151.276 190.442 151.452 191 151.48C191.56 151.51 192.066 151.384 192.518 151.103C192.973 150.823 193.356 150.38 193.669 149.774L194.442 148.274L188.353 145.133ZM184.068 151.277L189.702 154.609L189.19 155.475L183.556 152.143L184.068 151.277ZM190.381 155.604C190.481 155.436 190.624 155.324 190.811 155.27C190.997 155.218 191.171 155.24 191.332 155.335C191.494 155.431 191.596 155.572 191.64 155.76C191.683 155.95 191.654 156.13 191.555 156.298C191.455 156.467 191.312 156.577 191.126 156.629C190.939 156.684 190.765 156.663 190.603 156.568C190.442 156.472 190.34 156.329 190.297 156.139C190.253 155.951 190.281 155.773 190.381 155.604ZM181.373 155.213C181.604 154.869 181.879 154.6 182.197 154.406C182.517 154.215 182.857 154.119 183.216 154.121C183.576 154.123 183.934 154.244 184.287 154.481C184.599 154.69 184.81 154.921 184.921 155.174C185.034 155.428 185.077 155.695 185.05 155.974C185.023 156.254 184.954 156.536 184.842 156.82C184.73 157.108 184.606 157.389 184.47 157.664C184.291 158.022 184.143 158.311 184.026 158.531C183.91 158.754 183.848 158.931 183.839 159.062C183.828 159.195 183.89 159.307 184.024 159.397L184.052 159.416C184.401 159.651 184.737 159.737 185.058 159.676C185.379 159.617 185.668 159.396 185.926 159.011C186.194 158.613 186.316 158.242 186.294 157.898C186.271 157.555 186.192 157.27 186.056 157.045L186.871 156.443C187.106 156.806 187.237 157.168 187.262 157.527C187.288 157.89 187.244 158.237 187.128 158.567C187.014 158.9 186.864 159.204 186.681 159.477C186.563 159.652 186.408 159.838 186.213 160.036C186.019 160.238 185.787 160.402 185.517 160.529C185.246 160.658 184.934 160.707 184.582 160.675C184.23 160.644 183.838 160.484 183.407 160.194L179.827 157.789L180.388 156.954L181.124 157.448L181.152 157.406C181.072 157.27 181.009 157.091 180.964 156.869C180.918 156.646 180.922 156.394 180.975 156.111C181.028 155.828 181.16 155.529 181.373 155.213ZM182.037 155.844C181.815 156.174 181.693 156.496 181.671 156.81C181.647 157.126 181.698 157.41 181.826 157.664C181.952 157.919 182.128 158.123 182.354 158.275L183.119 158.789C183.1 158.725 183.113 158.621 183.159 158.477C183.205 158.337 183.267 158.18 183.346 158.007C183.425 157.838 183.505 157.674 183.584 157.515C183.664 157.36 183.728 157.234 183.777 157.136C183.894 156.9 183.985 156.667 184.048 156.435C184.111 156.208 184.12 155.994 184.072 155.795C184.026 155.599 183.896 155.43 183.684 155.288C183.394 155.093 183.103 155.053 182.81 155.167C182.518 155.286 182.26 155.512 182.037 155.844ZM178.738 159.262L183.824 163.382L183.212 164.137L182.418 163.494L182.364 163.56C182.55 163.886 182.622 164.228 182.581 164.585C182.542 164.945 182.388 165.29 182.12 165.621C181.848 165.957 181.546 166.174 181.213 166.274C180.88 166.378 180.527 166.382 180.154 166.288L180.111 166.341C180.268 166.684 180.318 167.048 180.262 167.434C180.208 167.822 180.033 168.197 179.738 168.562C179.369 169.016 178.926 169.273 178.407 169.331C177.89 169.392 177.332 169.179 176.734 168.695L173.33 165.937L173.963 165.156L177.367 167.913C177.742 168.217 178.094 168.332 178.421 168.257C178.749 168.183 179.025 168.006 179.25 167.728C179.54 167.37 179.656 167.006 179.599 166.634C179.544 166.264 179.352 165.946 179.023 165.679L175.712 162.997L176.356 162.202L179.839 165.024C180.129 165.259 180.437 165.353 180.766 165.309C181.097 165.266 181.382 165.097 181.622 164.801C181.786 164.598 181.886 164.364 181.921 164.1C181.954 163.838 181.918 163.575 181.814 163.311C181.71 163.052 181.533 162.821 181.284 162.619L178.105 160.043L178.738 159.262ZM170.141 169.094C170.556 168.674 171.021 168.404 171.535 168.285C172.046 168.168 172.57 168.199 173.105 168.377C173.638 168.557 174.145 168.885 174.626 169.361C175.11 169.84 175.446 170.347 175.634 170.88C175.819 171.416 175.856 171.94 175.744 172.453C175.63 172.968 175.365 173.435 174.949 173.855C174.533 174.275 174.07 174.543 173.558 174.66C173.044 174.779 172.52 174.748 171.985 174.566C171.447 174.386 170.936 174.056 170.452 173.576C169.971 173.1 169.64 172.596 169.456 172.062C169.271 171.531 169.235 171.008 169.349 170.493C169.461 169.98 169.725 169.514 170.141 169.094ZM170.782 169.729C170.467 170.048 170.289 170.392 170.248 170.759C170.208 171.127 170.272 171.493 170.44 171.855C170.609 172.218 170.849 172.553 171.16 172.861C171.47 173.169 171.809 173.406 172.176 173.573C172.542 173.74 172.91 173.803 173.279 173.761C173.649 173.719 173.991 173.538 174.307 173.219C174.623 172.9 174.8 172.556 174.838 172.186C174.877 171.816 174.811 171.449 174.64 171.084C174.47 170.72 174.229 170.383 173.918 170.075C173.607 169.768 173.269 169.531 172.905 169.366C172.541 169.201 172.175 169.141 171.807 169.185C171.44 169.229 171.098 169.41 170.782 169.729ZM168.859 175.965L166.269 173L167.026 172.338L171.333 177.267L170.601 177.907L169.928 177.136L169.864 177.193C169.967 177.544 169.967 177.898 169.865 178.256C169.764 178.615 169.527 178.958 169.155 179.283C168.821 179.575 168.469 179.761 168.1 179.843C167.731 179.927 167.357 179.892 166.977 179.737C166.599 179.585 166.227 179.299 165.86 178.879L163.124 175.747L163.881 175.086L166.573 178.166C166.911 178.554 167.275 178.768 167.665 178.808C168.057 178.85 168.428 178.718 168.779 178.412C169.021 178.201 169.191 177.96 169.29 177.688C169.387 177.419 169.402 177.136 169.335 176.84C169.268 176.543 169.11 176.252 168.859 175.965ZM159.634 178.266C160.071 177.94 160.54 177.763 161.039 177.735C161.54 177.708 162.037 177.827 162.528 178.092C163.021 178.359 163.474 178.77 163.889 179.326C164.299 179.877 164.561 180.426 164.674 180.973C164.787 181.519 164.758 182.028 164.585 182.5C164.413 182.973 164.106 183.373 163.664 183.703C163.322 183.957 163.01 184.102 162.727 184.135C162.443 184.173 162.195 184.159 161.984 184.094C161.771 184.032 161.601 183.978 161.474 183.931L161.406 183.982L163.331 186.565L162.525 187.166L157.31 180.168L158.089 179.588L158.69 180.394L158.785 180.323C158.773 180.183 158.768 180 158.768 179.772C158.771 179.547 158.831 179.302 158.949 179.037C159.068 178.775 159.297 178.518 159.634 178.266ZM160.064 179.072C159.741 179.313 159.53 179.601 159.433 179.936C159.337 180.273 159.343 180.636 159.451 181.023C159.56 181.412 159.763 181.805 160.058 182.202C160.35 182.594 160.662 182.894 160.995 183.103C161.33 183.314 161.67 183.419 162.015 183.416C162.363 183.416 162.7 183.294 163.028 183.05C163.37 182.795 163.589 182.495 163.686 182.15C163.783 181.809 163.777 181.447 163.668 181.063C163.559 180.684 163.367 180.31 163.092 179.941C162.814 179.567 162.504 179.27 162.163 179.05C161.821 178.833 161.47 178.719 161.11 178.707C160.75 178.699 160.401 178.821 160.064 179.072ZM154.474 188.063L155.102 187.364C155.23 187.461 155.379 187.54 155.549 187.601C155.717 187.666 155.906 187.688 156.114 187.667C156.323 187.646 156.551 187.558 156.798 187.402C157.137 187.188 157.37 186.931 157.497 186.633C157.624 186.338 157.612 186.072 157.462 185.834C157.328 185.622 157.146 185.504 156.915 185.479C156.684 185.453 156.379 185.503 156.001 185.627L155.052 185.944C154.481 186.137 153.996 186.186 153.597 186.092C153.2 186 152.879 185.761 152.635 185.374C152.435 185.057 152.347 184.716 152.372 184.351C152.394 183.987 152.522 183.631 152.756 183.282C152.989 182.933 153.32 182.623 153.75 182.351C154.315 181.995 154.859 181.822 155.384 181.834C155.909 181.845 156.369 182.055 156.765 182.464L156.085 183.175C155.82 182.926 155.534 182.794 155.226 182.78C154.916 182.768 154.586 182.872 154.238 183.092C153.842 183.342 153.58 183.625 153.453 183.94C153.326 184.259 153.337 184.538 153.487 184.775C153.608 184.968 153.777 185.086 153.994 185.131C154.212 185.178 154.48 185.146 154.8 185.035L155.859 184.669C156.442 184.469 156.931 184.42 157.329 184.522C157.725 184.628 158.043 184.872 158.285 185.254C158.482 185.566 158.569 185.898 158.545 186.248C158.519 186.601 158.396 186.942 158.178 187.271C157.957 187.603 157.652 187.891 157.263 188.137C156.715 188.483 156.209 188.634 155.745 188.591C155.279 188.549 154.855 188.373 154.474 188.063ZM140.96 201.743L135.832 188.338L136.628 188.033L141.756 201.438L140.96 201.743Z" fill="black"/>
</svg>
