<svg width="57" height="57" viewBox="0 0 57 57" fill="none" xmlns="http://www.w3.org/2000/svg">
<path d="M50.1572 56.9621C48.3362 56.9621 46.6241 56.2531 45.3362 54.9651L36.0241 45.6541C35.3021 44.9321 34.3461 44.5351 33.3341 44.5351C31.8771 44.5351 30.5651 45.3401 29.9131 46.6371L27.0591 52.3051C25.8751 54.6551 23.6041 56.0571 20.9821 56.0571C17.9891 56.0571 15.4452 54.2261 14.5012 51.3931L0.359162 8.9691C-0.342838 6.8631 -0.00585699 4.6301 1.28314 2.8411C3.00914 0.446101 6.16014 -0.597901 8.98514 0.344099L51.4091 14.4861C54.0701 15.3731 55.8501 17.6631 56.0541 20.4621C56.2561 23.2611 54.8252 25.7831 52.3202 27.0461L46.6522 29.9001C45.5452 30.4581 44.7952 31.4801 44.5992 32.7051C44.4022 33.9301 44.7912 35.1351 45.6682 36.0121L54.9792 45.3231C57.6382 47.9821 57.6382 52.3071 54.9792 54.9661C53.6902 56.2531 51.9782 56.9621 50.1572 56.9621ZM33.3341 41.5351C35.1481 41.5351 36.8571 42.2441 38.1461 43.5331L47.4572 52.8441C48.9002 54.2861 51.4141 54.2861 52.8571 52.8441C53.5781 52.1231 53.9752 51.1641 53.9752 50.1441C53.9752 49.1231 53.5781 48.1641 52.8571 47.4431L43.5461 38.1321C41.9811 36.5661 41.2841 34.4141 41.6361 32.2281C41.9881 30.0411 43.3241 28.2161 45.3011 27.2201L50.9691 24.3661C52.6471 23.5211 53.1502 21.9071 53.0612 20.6791C52.9712 19.4501 52.2421 17.9271 50.4591 17.3321L8.03516 3.1901C6.43316 2.6581 4.69216 3.24311 3.71616 4.59611C2.99716 5.59311 2.81216 6.8411 3.20416 8.0211L17.3462 50.4451C17.9892 52.3731 19.7061 53.0571 20.9821 53.0571C22.4471 53.0571 23.7162 52.2711 24.3802 50.9551L27.2342 45.2871C28.3992 42.9731 30.7361 41.5351 33.3341 41.5351Z" fill="#3D3D3D"/>
</svg>
